<svg width="230" height="62" viewBox="0 0 230 62" fill="none" xmlns="http://www.w3.org/2000/svg">
<g clip-path="url(#clip0_1_17)">
<path d="M21.016 48.04L22.648 38.92H19V34.84H23.32L24.808 26.2H20.68V22.12H25.528L27.16 13H31.384L29.752 22.12H36.568L38.2 13H42.424L40.792 22.12H44.44V26.2H40.072L38.584 34.84H42.76V38.92H37.864L36.28 48.04H32.056L33.688 38.92H26.824L25.24 48.04H21.016ZM27.544 34.84H34.36L35.848 26.2H29.032L27.544 34.84Z" stroke="#0071E3" stroke-width="2"/>
<path d="M75.0714 31.1366C74.7002 33.3108 73.981 35.157 72.9137 36.6749C71.8531 38.1929 70.5572 39.3463 69.026 40.1352C67.5013 40.924 65.8574 41.3184 64.0941 41.3184C62.2447 41.3184 60.6505 40.8975 59.3115 40.0556C57.9791 39.2138 57.0146 37.9974 56.418 36.4065C55.8214 34.8089 55.7087 32.8833 56.0799 30.6295C56.4379 28.4486 57.1505 26.5992 58.2177 25.0812C59.285 23.5566 60.5875 22.3965 62.1254 21.6011C63.6633 20.799 65.3172 20.398 67.087 20.398C68.9232 20.398 70.5075 20.8222 71.8399 21.6707C73.1789 22.5192 74.1434 23.7455 74.7333 25.3497C75.3299 26.9472 75.4426 28.8762 75.0714 31.1366ZM70.7859 30.6295C71.0179 29.2308 71.008 28.0575 70.7561 27.1096C70.5108 26.1551 70.0601 25.4325 69.4038 24.942C68.7476 24.4515 67.919 24.2062 66.918 24.2062C65.8309 24.2062 64.8333 24.478 63.9251 25.0215C63.0236 25.5651 62.2613 26.3539 61.6382 27.388C61.0217 28.4155 60.5941 29.665 60.3555 31.1366C60.1169 32.5419 60.1235 33.7152 60.3754 34.6565C60.6339 35.5978 61.0946 36.3104 61.7575 36.7943C62.427 37.2715 63.2589 37.5102 64.2532 37.5102C65.3337 37.5102 66.3214 37.245 67.2163 36.7147C68.1178 36.1778 68.8768 35.3989 69.4933 34.3781C70.1098 33.3506 70.5406 32.1011 70.7859 30.6295Z" fill="#1D1D1F"/>
<path d="M83.3914 41.3383C81.8203 41.3383 80.5277 41.0069 79.5135 40.344C78.506 39.6745 77.8 38.7464 77.3956 37.5599C76.9979 36.3733 76.9283 35.0078 77.1868 33.4633C77.4387 31.8989 77.9657 30.5267 78.7678 29.3468C79.5699 28.1603 80.5874 27.2356 81.8204 26.5727C83.0599 25.9032 84.452 25.5684 85.9965 25.5684C87.3289 25.5684 88.4558 25.8104 89.3772 26.2943C90.2986 26.7782 90.9747 27.4576 91.4056 28.3326C91.8364 29.2076 91.9823 30.2351 91.8431 31.415H87.8559C87.8625 30.6593 87.6669 30.0462 87.2692 29.5755C86.8715 29.1049 86.2882 28.8695 85.5192 28.8695C84.8563 28.8695 84.2465 29.0485 83.6897 29.4065C83.1395 29.7578 82.6721 30.2715 82.2877 30.9477C81.9098 31.6238 81.6447 32.4425 81.4922 33.4036C81.3331 34.3781 81.3298 35.2067 81.4823 35.8894C81.6347 36.5722 81.9264 37.0926 82.3573 37.4505C82.7882 37.8085 83.3317 37.9874 83.988 37.9874C84.4785 37.9874 84.9326 37.888 85.3502 37.6891C85.7744 37.4903 86.1456 37.2019 86.4638 36.8241C86.782 36.4396 87.0273 35.9789 87.1996 35.442H91.1968C90.925 36.6153 90.4311 37.6427 89.7152 38.5244C89.006 39.406 88.1144 40.0954 87.0405 40.5926C85.9667 41.0897 84.7503 41.3383 83.3914 41.3383Z" fill="#1D1D1F"/>
<path d="M103.633 25.7673L103.106 28.9491H93.8988L94.4358 25.7673H103.633ZM97.1204 22.1082H101.356L98.9897 36.3468C98.9235 36.7379 98.9334 37.0428 99.0196 37.2616C99.1057 37.4737 99.2483 37.6229 99.4471 37.709C99.6526 37.7952 99.8979 37.8383 100.183 37.8383C100.382 37.8383 100.584 37.8217 100.789 37.7886C100.995 37.7488 101.151 37.719 101.257 37.6991L101.416 40.8511C101.177 40.924 100.856 41.0035 100.451 41.0897C100.054 41.1759 99.583 41.2289 99.0395 41.2488C98.0054 41.2886 97.1304 41.1527 96.4145 40.8411C95.6985 40.523 95.1848 40.0357 94.8733 39.3795C94.5617 38.7232 94.4954 37.898 94.6744 36.9036L97.1204 22.1082Z" fill="#1D1D1F"/>
<path d="M110.603 41.3383C109.046 41.3383 107.756 41.0069 106.735 40.344C105.715 39.6745 104.995 38.7464 104.578 37.5599C104.167 36.3667 104.091 34.978 104.349 33.3937C104.601 31.8293 105.125 30.4605 105.92 29.2872C106.716 28.1139 107.726 27.2024 108.953 26.5528C110.179 25.8965 111.561 25.5684 113.099 25.5684C114.65 25.5684 115.936 25.9032 116.957 26.5727C117.978 27.2356 118.697 28.1636 119.115 29.3568C119.532 30.5499 119.612 31.9387 119.353 33.523C119.095 35.0807 118.565 36.4463 117.762 37.6195C116.96 38.7928 115.949 39.7076 114.73 40.3639C113.51 41.0135 112.135 41.3383 110.603 41.3383ZM111.021 38.057C111.737 38.057 112.37 37.8549 112.92 37.4505C113.477 37.0395 113.938 36.4827 114.302 35.7801C114.673 35.0708 114.932 34.2687 115.078 33.3738C115.224 32.4922 115.234 31.71 115.108 31.0272C114.982 30.3378 114.716 29.7943 114.312 29.3965C113.914 28.9988 113.368 28.7999 112.672 28.7999C111.956 28.7999 111.319 29.0054 110.762 29.4164C110.206 29.8208 109.745 30.3776 109.38 31.0869C109.016 31.7962 108.761 32.6016 108.615 33.5031C108.475 34.3781 108.466 35.1603 108.585 35.8497C108.704 36.5324 108.966 37.0727 109.37 37.4704C109.775 37.8615 110.325 38.057 111.021 38.057Z" fill="#1D1D1F"/>
<path d="M131.524 25.7673L130.997 28.9491H121.789L122.326 25.7673H131.524ZM125.011 22.1082H129.247L126.88 36.3468C126.814 36.7379 126.824 37.0428 126.91 37.2616C126.996 37.4737 127.139 37.6229 127.338 37.709C127.543 37.7952 127.789 37.8383 128.074 37.8383C128.272 37.8383 128.475 37.8217 128.68 37.7886C128.886 37.7488 129.041 37.719 129.147 37.6991L129.307 40.8511C129.068 40.924 128.746 41.0035 128.342 41.0897C127.944 41.1759 127.474 41.2289 126.93 41.2488C125.896 41.2886 125.021 41.1527 124.305 40.8411C123.589 40.523 123.075 40.0357 122.764 39.3795C122.452 38.7232 122.386 37.898 122.565 36.9036L125.011 22.1082Z" fill="#1D1D1F"/>
<path d="M137.793 32.2105L136.321 41.04H132.096L135.476 20.6764H139.583L138.31 28.4619H138.479C138.97 27.5604 139.642 26.8544 140.498 26.344C141.353 25.8269 142.364 25.5684 143.53 25.5684C144.591 25.5684 145.476 25.8004 146.185 26.2644C146.901 26.7218 147.408 27.3814 147.706 28.2431C148.005 29.0982 148.054 30.1224 147.856 31.3156L146.225 41.04H141.999L143.49 32.0713C143.643 31.13 143.52 30.3975 143.123 29.8738C142.731 29.3501 142.108 29.0883 141.253 29.0883C140.677 29.0883 140.146 29.2109 139.662 29.4562C139.178 29.7015 138.771 30.0594 138.439 30.5301C138.115 30.9941 137.899 31.5542 137.793 32.2105Z" fill="#1D1D1F"/>
<path d="M156.459 41.3383C154.901 41.3383 153.612 41.0069 152.591 40.344C151.57 39.6745 150.851 38.7464 150.433 37.5599C150.022 36.3667 149.946 34.978 150.205 33.3937C150.456 31.8293 150.98 30.4605 151.776 29.2872C152.571 28.1139 153.582 27.2024 154.808 26.5528C156.035 25.8965 157.417 25.5684 158.955 25.5684C160.506 25.5684 161.792 25.9032 162.813 26.5727C163.833 27.2356 164.553 28.1636 164.97 29.3568C165.388 30.5499 165.467 31.9387 165.209 33.523C164.95 35.0807 164.42 36.4463 163.618 37.6195C162.816 38.7928 161.805 39.7076 160.585 40.3639C159.366 41.0135 157.99 41.3383 156.459 41.3383ZM156.876 38.057C157.592 38.057 158.225 37.8549 158.776 37.4505C159.332 37.0395 159.793 36.4827 160.158 35.7801C160.529 35.0708 160.787 34.2687 160.933 33.3738C161.079 32.4922 161.089 31.71 160.963 31.0272C160.837 30.3378 160.572 29.7943 160.168 29.3965C159.77 28.9988 159.223 28.7999 158.527 28.7999C157.811 28.7999 157.175 29.0054 156.618 29.4164C156.061 29.8208 155.6 30.3776 155.236 31.0869C154.871 31.7962 154.616 32.6016 154.47 33.5031C154.331 34.3781 154.321 35.1603 154.44 35.8497C154.56 36.5324 154.822 37.0727 155.226 37.4704C155.63 37.8615 156.18 38.057 156.876 38.057Z" fill="#1D1D1F"/>
<path d="M166.71 41.04L169.256 25.7673H173.362L172.915 28.432H173.074C173.511 27.4841 174.098 26.7682 174.834 26.2843C175.576 25.7938 176.375 25.5485 177.23 25.5485C177.442 25.5485 177.664 25.5618 177.896 25.5883C178.135 25.6082 178.347 25.6413 178.533 25.6877L177.896 29.4562C177.711 29.3899 177.446 29.3369 177.101 29.2971C176.763 29.2507 176.441 29.2275 176.136 29.2275C175.52 29.2275 174.947 29.3634 174.416 29.6352C173.886 29.9003 173.438 30.2715 173.074 30.7488C172.716 31.2261 172.481 31.7763 172.368 32.3994L170.946 41.04H166.71Z" fill="#1D1D1F"/>
<path d="M177.243 46.7673L180.762 25.7673H184.939L184.511 28.3326H184.7C184.952 27.9216 185.287 27.504 185.704 27.0798C186.128 26.6489 186.655 26.2909 187.285 26.0059C187.915 25.7142 188.654 25.5684 189.503 25.5684C190.623 25.5684 191.601 25.8601 192.436 26.4434C193.271 27.0201 193.874 27.8918 194.245 29.0585C194.623 30.2185 194.666 31.6735 194.375 33.4235C194.096 35.1271 193.583 36.5656 192.833 37.7389C192.091 38.9055 191.199 39.7905 190.159 40.3937C189.125 40.9903 188.028 41.2886 186.868 41.2886C186.046 41.2886 185.369 41.1527 184.839 40.8809C184.315 40.6091 183.908 40.2677 183.616 39.8568C183.324 39.4392 183.119 39.0182 183 38.594H182.841L181.488 46.7673H177.243ZM183.636 33.4036C183.49 34.3118 183.484 35.1039 183.616 35.7801C183.755 36.4562 184.034 36.9832 184.451 37.361C184.869 37.7322 185.419 37.9178 186.102 37.9178C186.791 37.9178 187.405 37.7289 187.941 37.3511C188.478 36.9666 188.926 36.4363 189.284 35.7602C189.642 35.0774 189.897 34.2919 190.049 33.4036C190.189 32.522 190.192 31.7464 190.059 31.0769C189.927 30.4074 189.655 29.8838 189.244 29.5059C188.833 29.1281 188.276 28.9391 187.574 28.9391C186.891 28.9391 186.278 29.1214 185.734 29.486C185.197 29.8506 184.75 30.3677 184.392 31.0372C184.034 31.7067 183.782 32.4955 183.636 33.4036Z" fill="#1D1D1F"/>
<path d="M202.834 41.3383C201.269 41.3383 199.974 41.0201 198.946 40.3838C197.919 39.7408 197.196 38.8326 196.778 37.6593C196.367 36.4794 196.298 35.084 196.57 33.4732C196.835 31.9022 197.368 30.5234 198.17 29.3369C198.979 28.1503 199.993 27.2256 201.213 26.5627C202.433 25.8999 203.792 25.5684 205.29 25.5684C206.297 25.5684 207.209 25.7308 208.024 26.0556C208.846 26.3738 209.529 26.8577 210.072 27.5073C210.616 28.1503 210.987 28.9557 211.186 29.9235C211.392 30.8913 211.388 32.0249 211.176 33.3241L210.987 34.4874H198.101L198.509 31.8624H207.418C207.517 31.2526 207.477 30.7124 207.298 30.2417C207.119 29.7711 206.821 29.4032 206.403 29.138C205.986 28.8662 205.472 28.7303 204.862 28.7303C204.239 28.7303 203.656 28.8828 203.112 29.1877C202.569 29.4927 202.111 29.8937 201.74 30.3909C201.376 30.8814 201.14 31.415 201.034 31.9917L200.567 34.5968C200.434 35.3989 200.461 36.0651 200.646 36.5954C200.839 37.1257 201.17 37.5234 201.641 37.7886C202.111 38.0471 202.708 38.1764 203.43 38.1764C203.901 38.1764 204.342 38.1101 204.753 37.9775C205.17 37.8449 205.542 37.6494 205.867 37.3909C206.191 37.1257 206.456 36.7976 206.662 36.4065L210.53 36.665C210.172 37.6063 209.628 38.4283 208.899 39.1309C208.17 39.8269 207.292 40.3705 206.264 40.7616C205.243 41.1461 204.1 41.3383 202.834 41.3383Z" fill="#1D1D1F"/>
</g>
<defs>
<clipPath id="clip0_1_17">
<rect width="194" height="38" fill="white" transform="translate(18 12)"/>
</clipPath>
</defs>
</svg>
