<?xml version="1.0" encoding="utf-8" ?><svg xmlns="http://www.w3.org/2000/svg" xmlns:xlink="http://www.w3.org/1999/xlink" width="144" height="144" viewBox="0 0 144 144"><path fill="#151C2C" transform="scale(0.140625 0.140625)" d="M508.321 47.1665C513.789 46.8269 518.7 47.2827 523.645 49.7338C535.658 55.6896 547.653 62.8919 559.236 69.6378L612.639 100.4L711.73 157.546C748.745 179.519 786.038 201.019 823.602 222.04C820.299 230.877 819.231 236.748 817.948 246.186C788.264 229.602 757.945 211.762 728.461 194.694L630.446 137.953C605.271 123.115 579.964 108.502 554.528 94.1167C543.924 88.0662 533.33 81.923 522.759 75.8174C520.102 74.545 516.03 72.2321 513.078 72.2735C503.515 72.4076 495.248 79.7436 487.299 84.0279C463.199 97.0169 440.012 111.688 416.32 125.366L206.96 247.102C195.766 253.661 184.922 259.893 173.297 266.717C169.045 269.39 133.54 288.636 133.346 289.943C132.039 298.713 132.519 370.951 132.518 380.026L132.525 531.751L132.492 660.181C132.481 683.844 132.144 708.388 132.588 731.996C140.925 738.118 156.165 746.376 165.41 751.79L218.184 782.813L373.798 873.877L461.79 925.21L490.378 942.114C517.014 957.829 511.55 955.118 537.014 940.503L591.217 908.962L718.877 834.11C745.694 818.127 771.876 802.059 798.883 786.281L851.264 756.143C862.696 749.479 872.861 742.835 884.728 736.721C889.635 733.799 891.093 732.908 891.11 726.855C891.149 712.944 891.033 699.033 891.024 685.121L891.009 598.058L890.948 330.5C901.653 330.596 904.225 330.56 914.665 328.526L914.709 612.447L914.776 694.984C914.76 703.842 914.82 712.759 914.864 721.554C914.927 730.22 915.095 738.802 909.676 746.099C902.743 755.435 888.767 761.23 878.543 767.004C867.102 773.508 855.739 780.147 844.456 786.922C764.835 834.714 684.841 881.88 604.479 928.415L544.503 963.564C512.618 982.044 516.142 985.088 483.048 965.675L444.52 942.895L336.389 879.774L181.255 788.741C168.706 781.356 156.083 774.096 143.388 766.964C136.512 763.053 129.673 759.228 122.956 755.051C108.29 745.93 109.445 733.62 109.433 718.647L109.438 692.836L109.462 597.87L109.489 392.271L109.505 323.75C109.509 311.576 109.495 299.434 109.598 287.235C109.475 279.776 112.699 274.024 119.313 270.24C137.387 259.899 155.738 249.752 173.787 239.348L306.726 162.184L457.705 73.9847C469.336 67.3219 497.035 48.8868 508.321 47.1665Z"/><path fill="#151C2C" transform="scale(0.140625 0.140625)" d="M508.076 454.712C527.547 452.082 566.425 470.78 572.784 490.271C576.682 502.221 573.777 528.089 573.202 541.267C580.566 547.617 581.178 551.999 580.791 561.732C580.471 569.763 578.158 578.559 571.965 584.111C569.584 586.244 566.971 587.944 564.517 590.136C563.433 593.283 562.819 596.607 561.554 599.981C558.472 608.201 553.103 614.429 547.689 621.194C547.85 633.599 551.156 629.188 560.247 633.949C563.273 635.534 563.578 639.062 564.035 642.243C587.468 655.633 623.748 669.562 642.735 688.487C660.115 705.811 657.551 737.993 656.394 761.253C643.683 763.33 624.272 764.845 611.252 765.851C580.813 768.31 550.288 769.571 519.75 769.632C484.067 770.041 448.383 768.872 412.803 766.129C400.188 765.246 378.869 763.877 366.88 761.309C366.898 742.821 365.45 720.885 370.715 703.213C376.497 683.804 396.656 675.172 413.155 666.485C428.774 658.241 444.565 650.325 460.516 642.743C461.376 638.587 462.014 635.773 465.287 633.665C469.621 630.875 477.332 631.503 476.871 624.366C476.467 618.125 466.369 610.384 463.652 604.501C461.394 599.61 460.838 595.565 458.395 590.9C457.357 588.932 452.952 586.194 451.394 584.355C445.504 576.889 443.846 567.753 444.256 558.549C444.637 549.986 445.375 547.094 451.164 541.616C451.77 526.38 448.57 509.617 450.82 494.47C452.644 482.195 462.759 475.4 474.491 474.875C477.676 466.004 479.679 461.994 489.032 458.318C495.618 455.729 501.149 455.272 508.076 454.712Z"/><path fill="#151C2C" transform="scale(0.140625 0.140625)" d="M295.257 465.191C315.509 462.012 346.151 472.593 354.507 492.603C358.622 502.458 354.6 526.854 354.453 538.142L354.448 538.82C361.371 543.89 362.334 547.823 361.856 556.496C361.322 566.174 357.57 571.398 350.459 577.685C349.267 582.055 347.617 586.288 345.537 590.313C343.049 595.077 336.583 601.948 336.657 606.999C336.694 609.545 343.983 611.545 346.797 613.522C347.144 614.77 348.153 618.809 348.98 619.51C352.428 622.433 358.141 625.353 362.117 627.574C370.623 632.368 379.162 637.102 387.734 641.776C393.407 644.799 402.498 649.224 407.583 652.654C405.014 654.436 400.119 656.992 397.256 658.251C364.877 672.493 351.23 693.284 351.402 729.444C347.55 729.687 343.653 730.015 339.808 730.387C323.031 732.012 306.09 732.076 289.25 731.999C278.279 731.953 267.331 731.761 256.364 731.501C229.832 730.871 203.728 727.244 177.509 723.621C176.442 710.333 176.806 683.377 181.344 670.747C182.757 666.814 184.341 663.905 187.424 660.987C198.72 650.294 242.601 628.443 257.724 621.322L257.898 620.184C259.557 608.974 264.627 612.612 270.041 608.508C272.129 603.612 266.295 600.112 264.248 596.359C261.014 590.429 258.794 583.849 256.7 577.443C252.311 574.616 249.978 573.12 247.491 568.213C244.247 561.815 243.433 552.975 245.161 546.047C246.136 542.14 247.902 540.811 251.25 539.163C249.494 527.364 247.781 497.139 253.088 487.031C258.832 483.093 260.478 483.288 267.468 482.409C272.16 468.917 282.593 466.857 295.257 465.191Z"/><path fill="#151C2C" transform="scale(0.140625 0.140625)" d="M711.101 464.242C732.157 463.722 746.614 468.984 763.551 481.777C775.805 491.032 774.368 500.242 774.108 514.043C773.954 522.197 773.228 530.231 772.535 538.344C780.52 543.659 780.746 550.424 779.316 559.39C777.913 568.189 772.907 573.569 765.793 578.465C763.978 584.473 761.659 590.526 758.17 595.782C751.327 606.092 746.079 608.221 760.325 613.508C763.01 616.852 763.024 617.9 763.898 622.036C767.328 624.225 772.385 626.22 776.069 628.306C792.589 637.662 818.074 648.412 832.313 659.996C849.124 673.671 846.298 702.752 847.042 723.275C838.571 725.29 829.071 725.816 820.345 726.712C797.904 729.017 775.418 729.746 752.875 730.514C749.773 730.5 745.298 730.652 742.248 730.919C720.279 732.847 696.405 729.083 674.713 730.238C668.031 682.698 656.365 675.035 616.485 652.331C621.858 648.788 629.537 645.283 635.492 642.289C643.862 637.981 652.278 633.761 660.736 629.63C664.597 627.775 672.094 624.863 675.173 622.596C678.192 610.227 686.55 614.385 689.934 608.154C690.26 604.393 684.345 600.567 681.687 595.051C678.455 588.341 677.324 585.836 674.936 578.539C670.504 575.081 668.497 574.08 665.45 568.765C661.31 561.543 660.942 550.682 663.301 542.815C664.886 541.48 666.776 540.368 668.534 539.247C668.452 525.11 664.057 502.256 669.426 489.953C672.097 483.833 679.519 484.037 685.013 482.377L685.614 482.191C689.401 468.698 698.193 465.948 711.101 464.242Z"/><path fill="#151C2C" transform="scale(0.140625 0.140625)" d="M509.047 159.188C517.662 158.818 525.846 160.958 531.626 167.837C538.987 176.598 537.72 186.167 536.786 196.616C550.182 201.326 554.699 205.547 564.325 215.399C585.7 237.278 583.102 264.85 582.884 292.912C582.819 301.328 581.824 311.023 585.018 319.082C590.53 331.507 598.602 341.807 606.192 353.101C609.097 357.425 623.495 373.595 618.757 379.291C614.538 384.364 600.602 382.865 593.946 383.066C580.305 383.478 565.752 382.301 552.011 383.207C544.494 396.073 532.979 405.91 517.625 407.494C498.26 407.966 480.555 401.539 471.859 382.961C458.991 382.164 416.963 385.146 409.026 380.96C407.359 380.081 406.224 378.384 405.75 376.576C405.178 374.389 406.001 371.816 406.892 369.826C408.505 366.22 411.249 362.947 413.419 359.638C418.045 352.584 422.674 345.559 427.427 338.591C431.537 332.567 436.321 326.198 438.625 319.22C441.161 311.54 440.913 303.929 440.89 295.941C440.82 271.824 438.07 245.539 451.979 224.311C459.182 213.318 473.725 199.819 486.936 197.113C484.585 179.014 487.015 161.736 509.047 159.188ZM428.676 366.44C455.799 365.745 483.088 366.506 510.228 366.248C513.336 366.218 516.589 366.357 519.679 366.206C544.155 366.196 570.164 366.897 594.468 366.211C588.115 351.25 572.891 339.568 568.768 322.289C561.245 290.76 576.453 252.963 552.501 226.559C537.73 210.275 521.945 208.678 501.135 210.152C477.692 214.249 460.758 232.452 457.724 256.04C454.934 277.733 460.529 303.156 454.387 324.037C450.408 337.564 436.523 354.539 428.676 366.44ZM514.067 194.114C517.189 192.786 519.222 191.646 520.518 188.257C521.349 186.07 521.27 183.641 520.298 181.513C518.064 176.62 513.775 175.757 508.946 175.994C506.005 177.562 503.35 179.559 502.342 182.916C501.678 185.078 501.953 187.419 503.099 189.369C505.351 193.21 509.84 194.597 514.067 194.114Z"/><path fill="#DB3A3E" transform="scale(0.140625 0.140625)" d="M890.83 192.6C923.539 189.415 952.662 213.288 955.956 245.987C959.25 278.686 935.474 307.888 902.786 311.291C869.944 314.709 840.574 290.796 837.265 257.944C833.956 225.091 857.966 195.801 890.83 192.6Z"/></svg>